# xmcd
#
# Track frame offsets:
#	150
#	12197
#	23350
#
# Disc length: 508 seconds
#
# Revision: 0
# Processed by: cddbd v1.5.1PL0 Copyright (c) Steve Scherf et al.
# Submitted via: dBpowerAMP V4.0
#
DISCID=1001fa03
DTITLE=The Stands - I Need You (single)
DYEAR=2003
DGENRE=AlternRock
TTITLE0=I Need You
TTITLE1=I Will Journey Home
TTITLE2=She Only Cares For Me
EXTD=
EXTT0=
EXTT1=
EXTT2=
PLAYORDER=
